<svg width="40" height="29" viewBox="0 0 40 29" fill="none" xmlns="http://www.w3.org/2000/svg">
<path d="M38.6373 10.1219L39.8261 10.5081C39.9038 10.2688 39.9074 10.0115 39.8365 9.77008C39.7657 9.52862 39.6235 9.31418 39.4288 9.1548C39.234 8.99543 38.9957 8.89856 38.745 8.87685C38.4943 8.85514 38.2428 8.90962 38.0236 9.03314L38.6373 10.1219ZM33.1686 26.9531V28.2031C33.4325 28.2031 33.6897 28.1196 33.9033 27.9644C34.1168 27.8092 34.2758 27.5904 34.3573 27.3394L33.1686 26.9531ZM6.71858 26.9531L5.52983 27.3394C5.61139 27.5904 5.77034 27.8092 5.98388 27.9644C6.19743 28.1196 6.45461 28.2031 6.71858 28.2031V26.9531ZM1.24983 10.1219L1.86358 9.03314C1.64433 8.90962 1.3929 8.85514 1.14218 8.87685C0.891463 8.89856 0.653137 8.99543 0.45838 9.1548C0.263623 9.31418 0.121504 9.52862 0.0506167 9.77008C-0.0202705 10.0115 -0.0166256 10.2688 0.0610755 10.5081L1.24983 10.1219ZM12.0392 16.205L11.4255 17.2938C11.5709 17.3758 11.7313 17.4278 11.8972 17.4468C12.0631 17.4657 12.2311 17.4513 12.3913 17.4043C12.5515 17.3573 12.7006 17.2786 12.83 17.173C12.9593 17.0674 13.0661 16.937 13.1442 16.7894L12.0392 16.205ZM19.9436 1.25002L21.0486 0.665641C20.9423 0.464708 20.7833 0.296552 20.5886 0.179265C20.3939 0.0619776 20.1709 0 19.9436 0C19.7163 0 19.4933 0.0619776 19.2986 0.179265C19.1039 0.296552 18.9448 0.464708 18.8386 0.665641L19.9436 1.25002ZM27.848 16.205L26.743 16.7894C26.821 16.937 26.9279 17.0674 27.0572 17.173C27.1865 17.2786 27.3357 17.3573 27.4959 17.4043C27.6561 17.4513 27.8241 17.4657 27.99 17.4468C28.1559 17.4278 28.3163 17.3758 28.4617 17.2938L27.848 16.205ZM37.4486 9.73627L31.9798 26.5669L34.3573 27.3394L39.8261 10.5081L37.4486 9.73627ZM33.1686 25.7025H6.71858V28.2031H33.1686V25.7025ZM7.90733 26.5663L2.43858 9.73502L0.0610755 10.5081L5.52983 27.3394L7.90733 26.5663ZM0.636076 11.2106L11.4255 17.2938L12.6523 15.1163L1.86295 9.03314L0.636076 11.2106ZM13.1442 16.7894L21.0486 1.83439L18.8386 0.665641L10.9342 15.6213L13.1442 16.7894ZM18.838 1.83439L26.743 16.7894L28.9536 15.6206L21.0486 0.665641L18.838 1.83439ZM28.4617 17.2938L39.2523 11.2106L38.0236 9.03314L27.2348 15.1163L28.4617 17.2938Z" fill="#F2994A"/>
</svg>
