<svg width="90" height="24" viewBox="0 0 90 24" fill="none" xmlns="http://www.w3.org/2000/svg">
<path d="M24 17.64V0.36H27.264V7.464H34.992V0.36H38.256V17.64H34.992V10.512H27.264V17.64H24Z" fill="#0050CB"/>
<path d="M45.225 18C44.297 18 43.509 17.824 42.861 17.472C42.221 17.112 41.733 16.636 41.397 16.044C41.069 15.444 40.905 14.784 40.905 14.064C40.905 13.464 40.997 12.916 41.181 12.42C41.365 11.924 41.661 11.488 42.069 11.112C42.485 10.728 43.041 10.408 43.737 10.152C44.217 9.976 44.789 9.82 45.453 9.684C46.117 9.548 46.869 9.42 47.709 9.3C48.549 9.172 49.473 9.032 50.481 8.88L49.305 9.528C49.305 8.76 49.121 8.196 48.753 7.836C48.385 7.476 47.769 7.296 46.905 7.296C46.425 7.296 45.925 7.412 45.405 7.644C44.885 7.876 44.521 8.288 44.313 8.88L41.361 7.944C41.689 6.872 42.305 6 43.209 5.328C44.113 4.656 45.345 4.32 46.905 4.32C48.049 4.32 49.065 4.496 49.953 4.848C50.841 5.2 51.513 5.808 51.969 6.672C52.225 7.152 52.377 7.632 52.425 8.112C52.473 8.592 52.497 9.128 52.497 9.72V17.64H49.641V14.976L50.049 15.528C49.417 16.4 48.733 17.032 47.997 17.424C47.269 17.808 46.345 18 45.225 18ZM45.921 15.432C46.521 15.432 47.025 15.328 47.433 15.12C47.849 14.904 48.177 14.66 48.417 14.388C48.665 14.116 48.833 13.888 48.921 13.704C49.089 13.352 49.185 12.944 49.209 12.48C49.241 12.008 49.257 11.616 49.257 11.304L50.217 11.544C49.249 11.704 48.465 11.84 47.865 11.952C47.265 12.056 46.781 12.152 46.413 12.24C46.045 12.328 45.721 12.424 45.441 12.528C45.121 12.656 44.861 12.796 44.661 12.948C44.469 13.092 44.325 13.252 44.229 13.428C44.141 13.604 44.097 13.8 44.097 14.016C44.097 14.312 44.169 14.568 44.313 14.784C44.465 14.992 44.677 15.152 44.949 15.264C45.221 15.376 45.545 15.432 45.921 15.432Z" fill="#0050CB"/>
<path d="M61.9772 18C60.6892 18 59.6132 17.7 58.7492 17.1C57.8852 16.5 57.2332 15.684 56.7932 14.652C56.3612 13.62 56.1452 12.456 56.1452 11.16C56.1452 9.864 56.3612 8.7 56.7932 7.668C57.2252 6.636 57.8612 5.82 58.7012 5.22C59.5412 4.62 60.5772 4.32 61.8092 4.32C63.0492 4.32 64.1292 4.616 65.0492 5.208C65.9692 5.8 66.6812 6.612 67.1852 7.644C67.6972 8.668 67.9532 9.84 67.9532 11.16C67.9532 12.456 67.7012 13.62 67.1972 14.652C66.7012 15.684 66.0052 16.5 65.1092 17.1C64.2132 17.7 63.1692 18 61.9772 18ZM55.5932 23.4V4.68H58.4732V13.56H58.8812V23.4H55.5932ZM61.4492 15.096C62.1532 15.096 62.7292 14.92 63.1772 14.568C63.6252 14.216 63.9572 13.744 64.1732 13.152C64.3892 12.552 64.4972 11.888 64.4972 11.16C64.4972 10.44 64.3852 9.784 64.1612 9.192C63.9372 8.592 63.5892 8.116 63.1172 7.764C62.6532 7.404 62.0572 7.224 61.3292 7.224C60.6492 7.224 60.0972 7.388 59.6732 7.716C59.2572 8.044 58.9532 8.504 58.7612 9.096C58.5692 9.688 58.4732 10.376 58.4732 11.16C58.4732 11.944 58.5692 12.632 58.7612 13.224C58.9532 13.816 59.2652 14.276 59.6972 14.604C60.1372 14.932 60.7212 15.096 61.4492 15.096Z" fill="#0050CB"/>
<path d="M70.8337 17.64V0H74.0977V17.64H70.8337Z" fill="#0050CB"/>
<path d="M83.7193 18C82.3913 18 81.2193 17.716 80.2033 17.148C79.1953 16.572 78.4033 15.784 77.8273 14.784C77.2593 13.776 76.9753 12.624 76.9753 11.328C76.9753 9.912 77.2553 8.68 77.8153 7.632C78.3753 6.584 79.1473 5.772 80.1313 5.196C81.1153 4.612 82.2473 4.32 83.5273 4.32C84.8873 4.32 86.0433 4.64 86.9953 5.28C87.9473 5.92 88.6513 6.82 89.1073 7.98C89.5633 9.14 89.7233 10.504 89.5873 12.072H86.3593V10.872C86.3593 9.552 86.1473 8.604 85.7233 8.028C85.3073 7.444 84.6233 7.152 83.6713 7.152C82.5593 7.152 81.7393 7.492 81.2113 8.172C80.6913 8.844 80.4313 9.84 80.4313 11.16C80.4313 12.368 80.6913 13.304 81.2113 13.968C81.7393 14.624 82.5113 14.952 83.5273 14.952C84.1673 14.952 84.7153 14.812 85.1713 14.532C85.6273 14.252 85.9753 13.848 86.2153 13.32L89.4793 14.256C88.9913 15.44 88.2193 16.36 87.1633 17.016C86.1153 17.672 84.9673 18 83.7193 18ZM79.4233 12.072V9.648H88.0153V12.072H79.4233Z" fill="#0050CB"/>
<path d="M16.75 16.8H9.25V12H8V16.8H4.25V12H3V16.8C3 17.1183 3.1317 17.4235 3.36612 17.6485C3.60054 17.8736 3.91848 18 4.25 18H16.75C17.0815 18 17.3995 17.8736 17.6339 17.6485C17.8683 17.4235 18 17.1183 18 16.8V12H16.75V16.8Z" fill="#0050CB"/>
<path d="M20.8622 5.74595L18.1847 0.688026C18.076 0.481487 17.9085 0.307672 17.701 0.186126C17.4935 0.0645804 17.2542 0.000122383 17.01 0H3.99001C3.74583 0.000122383 3.50652 0.0645804 3.29901 0.186126C3.09149 0.307672 2.92398 0.481487 2.81532 0.688026L0.137822 5.74595C0.0464045 5.91919 -0.000792954 6.11024 1.0078e-05 6.30381V8.21293C-0.000589095 8.50258 0.106216 8.78329 0.301885 9.00633C0.591067 9.31943 0.948224 9.57006 1.34908 9.74119C1.74994 9.91232 2.18511 9.99993 2.62501 9.99808C3.34279 9.99913 4.03869 9.7647 4.59376 9.33484C5.14882 9.76494 5.84456 10 6.5625 10C7.28045 10 7.97619 9.76494 8.53125 9.33484C9.08631 9.76494 9.78206 10 10.5 10C11.2179 10 11.9137 9.76494 12.4687 9.33484C13.0238 9.76494 13.7196 10 14.4375 10C15.1554 10 15.8512 9.76494 16.4062 9.33484C17.0258 9.81536 17.8186 10.0503 18.6177 9.99015C19.4169 9.93004 20.1603 9.57961 20.6916 9.01253C20.8896 8.79035 20.9987 8.50955 21 8.21913V6.30381C21.0008 6.11024 20.9536 5.91919 20.8622 5.74595ZM8.53125 6.44637V7.38854L7.99313 8.05797C7.82794 8.27063 7.61204 8.44357 7.36293 8.56277C7.11381 8.68197 6.83848 8.74408 6.55922 8.74408C6.27997 8.74408 6.00463 8.68197 5.75552 8.56277C5.5064 8.44357 5.29051 8.27063 5.12532 8.05797L4.59376 7.36374V6.44637L6.29344 1.23969H9.1875L8.53125 6.44637ZM16.4062 7.36374L15.8747 8.05797C15.7095 8.27063 15.4936 8.44357 15.2445 8.56277C14.9954 8.68197 14.72 8.74408 14.4408 8.74408C14.1615 8.74408 13.8862 8.68197 13.6371 8.56277C13.388 8.44357 13.1721 8.27063 13.0069 8.05797L12.4687 7.36374V6.44637L11.8125 1.23969H14.7328L16.4062 6.44637V7.36374Z" fill="#0050CB"/>
</svg>
